<?xml version="1.0" encoding="utf-8"?>
<!-- Generator: Adobe Illustrator 19.0.0, SVG Export Plug-In . SVG Version: 6.00 Build 0)  -->
<svg version="1.1" id="Layer_1" xmlns="http://www.w3.org/2000/svg" xmlns:xlink="http://www.w3.org/1999/xlink" x="0px" y="0px"
	 viewBox="-750.8 -333.7 526.8 154.1" style="enable-background:new -750.8 -333.7 526.8 154.1;" xml:space="preserve">
<style type="text/css">
	.st0{fill:#364A5E;}
	.st1{fill:#FFFFFF;}
	.st2{enable-background:new    ;}
</style>
<g id="XMLID_294_">
	<rect id="XMLID_101_" x="-1655.3" y="4" class="st0" width="154.1" height="154.1"/>
	<g id="XMLID_96_">
		<path id="XMLID_98_" class="st1" d="M-1626,130.1v-13.2h11.4V46.1h-11.7V32.6h22.4l57.3,70.1V46.1h-11.7V32.6h37.4v13.5h-11.2
			v84.1h-9.9l-58-70.1V117h11.7v13.2h-37.7V130.1z"/>
	</g>
	<path id="XMLID_92_" class="st0" d="M-1393.8,81.4c-0.1,24.6-15.4,48.7-47.4,48.7c-32.1,0-47.6-24-47.6-48.7
		c0-27.3,18.2-49,47.7-49C-1409.4,32.5-1393.6,56.5-1393.8,81.4z M-1441.1,43.2c-23.8,0-36.1,17.6-36.1,38.2
		c0,19.1,11.5,37.7,36.1,37.7s35.7-19.1,35.7-37.7C-1405.3,62.3-1416.6,43.4-1441.1,43.2z"/>
	<path id="XMLID_86_" class="st0" d="M-1387.2,43.5v-11c18.1,0,34.2,0,52.3,0c18,0,32.6,7.7,32.6,27.3c0,8.9-5,16.5-14.5,20.2
		c12,3.1,17.7,14.1,17.7,23.2c0,22.2-17.6,26.9-35.8,26.9c-18.3,0-34.3,0-52.6,0v-11.2h12.1V43.4h-11.8V43.5z M-1363.4,74.5h29
		c11.6,0,20.2-5.3,20.2-14.5c0-12.4-8.9-16.5-20.8-16.5h-28.5v31H-1363.4z M-1363.4,119h28.5c10.2,0,23.6-2.4,23.6-16.2
		c0-12.3-12.6-17.3-23-17.3h-29L-1363.4,119L-1363.4,119z"/>
	<path id="XMLID_84_" class="st0" d="M-1225.8,118.9l0.4-15.1h10.9V130c-25.7,0-51.2,0-76.9,0v-11h11.6V43.6h-12.1V32.4h35.8v11.2
		h-11.6v75.3C-1253.7,118.9-1239.8,118.9-1225.8,118.9z"/>
	<path id="XMLID_82_" class="st0" d="M-1210.4,130v-11.2h12.1V43.3h-11.9v-11h79.5v25.9h-10.9l-0.4-14.8h-44.4v31.1h44.5v11.3h-44.5
		v32.8h46.4l0.4-14.9h10.9v26.4h-81.7V130z"/>
	
		<text id="XMLID_81_" transform="matrix(1 0 0 1 -1490.1218 158.1293)" class="st0" style="font-family:'ArialMT'; font-size:23.6265px; letter-spacing:31;">PARTNERS</text>
</g>
<path id="XMLID_35_" class="st0" d="M-750.8-333.7v154.1h154.1v-154.1H-750.8z M-616.3-291.6h-11.2v84.1h-9.9l-58-70.1v56.9h11.7
	v13.2h-37.8v-13.2h11.4v-70.8h-11.7V-305h22.4l57.3,70.1v-56.6h-11.7V-305h37.4v13.4H-616.3z"/>
<path id="XMLID_30_" class="st0" d="M-596.8-769.7v154.1h154.1v-154.1H-596.8L-596.8-769.7z M-462.3-727.6h-11.2v84.1h-9.9l-58-70.1
	v56.9h11.7v13.2h-37.8v-13.2h11.4v-70.8h-11.7V-741h22.4l57.3,70.1v-56.6h-11.7V-741h37.4v13.4H-462.3z"/>
<path id="XMLID_27_" class="st0" d="M-489.2-256.3c-0.1,24.6-15.4,48.7-47.4,48.7c-32.1,0-47.6-24-47.6-48.7c0-27.3,18.2-49,47.7-49
	C-504.9-305.2-489.1-281.2-489.2-256.3z M-536.6-294.5c-23.8,0-36.1,17.6-36.1,38.2c0,19.1,11.5,37.7,36.1,37.7
	c24.6,0,35.7-19.1,35.7-37.7C-500.7-275.4-512.1-294.3-536.6-294.5z"/>
<path id="XMLID_23_" class="st0" d="M-482.7-294.2v-11c18.1,0,34.2,0,52.3,0c18,0,32.6,7.7,32.6,27.3c0,8.9-5,16.5-14.5,20.2
	c12,3.1,17.7,14.1,17.7,23.2c0,22.2-17.6,26.9-35.8,26.9s-34.3,0-52.6,0v-11.2h12.1v-75.5h-11.8V-294.2z M-458.8-263.2h29
	c11.6,0,20.2-5.3,20.2-14.5c0-12.4-8.9-16.5-20.8-16.5h-28.5v31H-458.8z M-458.8-218.7h28.5c10.2,0,23.6-2.4,23.6-16.2
	c0-12.3-12.6-17.3-23-17.3h-29L-458.8-218.7L-458.8-218.7z"/>
<path id="XMLID_21_" class="st0" d="M-321.3-218.8l0.4-15.1h10.9v26.2c-25.7,0-51.2,0-76.9,0v-11h11.6v-75.5h-12.1v-11.2h35.8v11.2
	h-11.6v75.3C-349.2-218.8-335.2-218.8-321.3-218.8z"/>
<path id="XMLID_17_" class="st0" d="M-305.9-207.7v-11.2h12.1v-75.5h-11.9v-11h79.5v25.9H-237l-0.4-14.8h-44.4v31.1h44.5v11.3h-44.5
	v32.6h46.4l0.4-14.9h11v26.4h-81.9V-207.7z"/>
<path id="XMLID_20_" class="st1" d="M-214,135.2v154.1h154.1V135.2H-214z M-79.5,177.2h-11.2v84.1h-9.9l-58-70.1v56.9h11.7v13.2
	h-37.8v-13.2h11.4v-70.9h-11.6v-13.5h22.4l57.3,70.1v-56.6h-11.7v-13.5h37.4V177.2z"/>
<path id="XMLID_12_" class="st1" d="M47.6,212.6c-0.1,24.6-15.4,48.7-47.4,48.7c-32.1,0-47.6-24-47.6-48.7c0-27.3,18.2-49,47.7-49
	C31.9,163.7,47.7,187.7,47.6,212.6z M0.2,174.3c-23.8,0-36.1,17.6-36.1,38.2c0,19.1,11.5,37.7,36.1,37.7s35.7-19.1,35.7-37.7
	C36.1,193.5,24.7,174.6,0.2,174.3z"/>
<path id="XMLID_8_" class="st1" d="M54.1,174.7v-11c18.1,0,34.2,0,52.3,0c18,0,32.6,7.7,32.6,27.3c0,8.9-5,16.5-14.5,20.2
	c12,3.1,17.7,14.1,17.7,23.2c0,22.2-17.6,26.9-35.8,26.9c-18.3,0-34.3,0-52.6,0v-11.1H66v-75.5H54.1z M78,205.7h29
	c11.6,0,20.2-5.3,20.2-14.5c0-12.4-8.9-16.5-20.8-16.5H78V205.7z M78,250.2h28.5c10.2,0,23.6-2.4,23.6-16.2
	c0-12.3-12.6-17.3-23-17.3h-29v33.5H78z"/>
<path id="XMLID_6_" class="st1" d="M215.5,250.1l0.4-15.1h10.9v26.2c-25.7,0-51.2,0-76.9,0v-11h11.6v-75.4h-12.1v-11.2h35.8v11.2
	h-11.6v75.3C187.6,250.1,201.6,250.1,215.5,250.1z"/>
<path id="XMLID_4_" class="st1" d="M230.9,261.2V250H243v-75.4h-11.9v-11h79.5v25.9h-10.9l-0.4-14.8h-44.4v31.1h44.5v11.3h-44.5
	v32.6h46.4l0.4-14.9h10.9v26.4H230.9z"/>
<g id="XMLID_16_">
	<path id="XMLID_162_" class="st0" d="M-571.9-197c1.1-0.2,2.5-0.3,4.2-0.3c2.1,0,3.8,0.5,4.8,1.4c1,0.9,1.5,2,1.5,3.5
		c0,1.5-0.4,2.8-1.3,3.7c-1.2,1.3-3.1,1.8-5.3,1.8c-0.6,0-1.3,0-1.8-0.1v6.9h-2.1V-197z M-569.6-188.7c0.4,0.1,1.1,0.2,1.8,0.2
		c2.7,0,4.3-1.3,4.3-3.7c0-2.3-1.6-3.3-4.1-3.3c-1,0-1.7,0.1-2,0.2V-188.7z"/>
	<path id="XMLID_165_" class="st0" d="M-523.2-185.5l-1.8,5.4h-2.3l5.8-17.1h2.7l5.8,17.1h-2.4l-1.8-5.4H-523.2z M-517.6-187.2
		l-1.7-4.9c-0.4-1.1-0.6-2.1-0.9-3.1l0,0c-0.2,1-0.5,2-0.9,3.1l-1.7,4.9H-517.6z"/>
	<path id="XMLID_168_" class="st0" d="M-475.8-197c1.1-0.2,2.7-0.3,4.2-0.3c2.4,0,3.9,0.4,4.9,1.4c0.9,0.8,1.4,1.9,1.4,3.2
		c0,2.3-1.4,3.8-3.2,4.4v0.1c1.3,0.4,2.1,1.7,2.5,3.4c0.5,2.4,1,4.1,1.3,4.7h-2.3c-0.3-0.4-0.6-1.9-1.2-4.1
		c-0.5-2.4-1.4-3.2-3.4-3.3h-2v7.4h-2.3v-17H-475.8z M-473.5-189.1h2.3c2.4,0,3.9-1.3,3.9-3.2c0-2.3-1.6-3.2-4-3.2
		c-1.1,0-1.8,0.1-2.1,0.2V-189.1z"/>
	<path id="XMLID_171_" class="st0" d="M-424-195.4h-5.2v-1.8h12.7v1.8h-5.3v15.2h-2.3V-195.4z"/>
	<path id="XMLID_173_" class="st0" d="M-380.1-180.1v-17.1h2.4l5.5,8.7c1.3,2,2.3,3.8,3.1,5.6l0,0c-0.2-2.3-0.2-4.4-0.2-7v-7.2h2
		v17.1h-2.3l-5.5-8.7c-1.2-1.9-2.4-3.9-3.2-5.7h-0.1c0.1,2.1,0.2,4.2,0.2,7.1v7.3h-1.9V-180.1z"/>
	<path id="XMLID_175_" class="st0" d="M-320-188.1h-6.7v6.1h7.4v1.8h-9.7v-17.1h9.2v1.8h-7v5.4h6.7V-188.1z"/>
	<path id="XMLID_177_" class="st0" d="M-281.8-197c1.1-0.2,2.7-0.3,4.2-0.3c2.4,0,3.9,0.4,4.9,1.4c0.9,0.8,1.4,1.9,1.4,3.2
		c0,2.3-1.4,3.8-3.2,4.4v0.1c1.3,0.4,2.1,1.7,2.5,3.4c0.5,2.4,1,4.1,1.3,4.7h-2.3c-0.3-0.4-0.6-1.9-1.2-4.1
		c-0.5-2.4-1.4-3.2-3.4-3.3h-2v7.4h-2.3v-17H-281.8z M-279.5-189.1h2.3c2.4,0,3.9-1.3,3.9-3.2c0-2.3-1.6-3.2-4-3.2
		c-1.1,0-1.8,0.1-2.1,0.2V-189.1z"/>
	<path id="XMLID_180_" class="st0" d="M-233.8-182.8c1,0.6,2.5,1.1,4,1.1c2.3,0,3.5-1.2,3.5-2.9c0-1.6-1-2.5-3.2-3.4
		c-2.8-1-4.5-2.5-4.5-4.8c0-2.7,2.3-4.6,5.5-4.6c1.7,0,3,0.4,3.8,0.9l-0.6,1.8c-0.5-0.3-1.7-0.9-3.2-0.9c-2.4,0-3.2,1.4-3.2,2.6
		c0,1.6,1.1,2.4,3.4,3.3c2.9,1.1,4.4,2.5,4.4,5c0,2.7-1.9,4.9-6,4.9c-1.6,0-3.4-0.4-4.4-1.1L-233.8-182.8z"/>
</g>
</svg>
